<?xml version="1.0" encoding="UTF-8" standalone="no"?>
<!DOCTYPE svg PUBLIC "-//W3C//DTD SVG 1.1//EN" "http://www.w3.org/Graphics/SVG/1.1/DTD/svg11.dtd">
<svg width="100%" height="100%" viewBox="0 0 1322 187" version="1.1" xmlns="http://www.w3.org/2000/svg" xmlns:xlink="http://www.w3.org/1999/xlink" xml:space="preserve" xmlns:serif="http://www.serif.com/" style="fill-rule:evenodd;clip-rule:evenodd;stroke-linejoin:round;stroke-miterlimit:2;">
    <g transform="matrix(1,0,0,1,-125,-10608)">
        <g id="Artboard33" transform="matrix(0.853686,0,0,0.337147,51.4698,7073.81)">
            <rect x="86.644" y="10483.1" width="1547.9" height="553.12" style="fill:none;"/>
            <g transform="matrix(7.04027,0,0,17.8266,-12372.2,-69441.1)">
                <path d="M1785.51,4490.94C1781.4,4490.94 1778.75,4493.9 1777.62,4496.11C1777.44,4496.44 1777.21,4496.94 1776.67,4496.73C1776.09,4496.52 1776.54,4495.69 1776.9,4495.02C1777.26,4494.36 1777.48,4493.65 1777.48,4492.65L1777.48,4483.61L1770.27,4483.61L1770.27,4513.61L1777.48,4513.61L1777.48,4505.15C1777.48,4500.06 1780.14,4496.61 1783.07,4496.61C1785.64,4496.61 1786.86,4497.98 1786.86,4502.94L1786.86,4513.61L1794.07,4513.61L1794.07,4500.27C1794.07,4494.02 1790.64,4490.94 1785.51,4490.94Z" style="fill:rgb(35,41,50);fill-rule:nonzero;"/>
            </g>
            <g transform="matrix(7.04027,0,0,17.8266,-12372.2,-69441.1)">
                <path d="M1796.32,4507.73C1796.32,4511.4 1799.79,4514.27 1804.61,4514.27C1808.58,4514.27 1811.23,4512.31 1812.72,4509.61C1812.9,4509.31 1813.08,4508.81 1813.67,4509.06C1814.16,4509.27 1813.76,4509.94 1813.4,4510.65C1813.08,4511.23 1812.9,4511.81 1812.9,4512.48L1812.9,4513.61L1820.11,4513.61L1820.11,4501.44C1820.11,4492.61 1814.66,4490.94 1809.03,4490.94C1803.71,4490.94 1797.85,4493.06 1797.04,4498.94L1804.16,4498.94C1804.52,4497.27 1805.6,4495.94 1808.85,4495.94C1812.14,4495.94 1812.86,4497.52 1812.9,4498.77C1812.95,4500.65 1809.93,4500.4 1805.69,4500.65C1800.55,4500.94 1796.32,4502.77 1796.32,4507.73ZM1812.9,4502.94C1812.86,4507.48 1809.52,4509.27 1807.36,4509.61C1805.42,4509.9 1803.53,4509.11 1803.53,4507.27C1803.53,4505.4 1805.02,4504.69 1806.68,4504.52C1810.06,4504.15 1811.73,4504.06 1812.9,4502.94Z" style="fill:rgb(35,41,50);fill-rule:nonzero;"/>
            </g>
            <g transform="matrix(7.04027,0,0,17.8266,-12372.2,-69441.1)">
                <path d="M1824.19,4488.94L1831.4,4488.94L1831.4,4483.61L1824.19,4483.61L1824.19,4488.94ZM1824.19,4491.61L1824.19,4513.61L1831.4,4513.61L1831.4,4491.61L1824.19,4491.61Z" style="fill:rgb(35,41,50);fill-rule:nonzero;"/>
            </g>
            <g transform="matrix(7.04027,0,0,17.8266,-12372.2,-69441.1)">
                <path d="M1851.01,4491.61L1844.52,4491.61L1844.52,4485.61L1837.31,4485.61L1837.31,4491.61L1832.98,4491.61L1832.98,4496.94L1837.31,4496.94L1837.31,4506.86C1837.31,4512.15 1839.56,4513.61 1844.34,4513.61L1851.01,4513.61L1851.01,4508.27L1846.68,4508.27C1844.61,4508.27 1844.52,4508.19 1844.52,4506.11L1844.52,4496.94L1851.01,4496.94L1851.01,4491.61Z" style="fill:rgb(35,41,50);fill-rule:nonzero;"/>
            </g>
            <g transform="matrix(7.04027,0,0,17.8266,-12372.2,-69441.1)">
                <path d="M1854.37,4488.94L1861.58,4488.94L1861.58,4483.61L1854.37,4483.61L1854.37,4488.94ZM1854.37,4491.61L1854.37,4513.61L1861.58,4513.61L1861.58,4491.61L1854.37,4491.61Z" style="fill:rgb(35,41,50);fill-rule:nonzero;"/>
            </g>
            <g transform="matrix(7.04027,0,0,17.8266,-12372.2,-69441.1)">
                <path d="M1865.65,4483.61L1865.65,4513.61L1872.86,4513.61L1872.86,4512.81C1872.86,4512.19 1872.68,4511.61 1872.32,4511.02C1871.96,4510.31 1871.56,4509.61 1872.23,4509.4C1872.68,4509.27 1872.91,4509.73 1873.04,4509.98C1874.53,4512.61 1876.97,4514.27 1880.53,4514.27C1887.06,4514.27 1890.89,4509.11 1890.89,4502.61C1890.89,4496.11 1887.06,4490.94 1880.53,4490.94C1876.92,4490.94 1874.53,4492.65 1873.04,4495.19C1872.86,4495.48 1872.55,4496.06 1872.01,4495.81C1871.42,4495.56 1872.01,4494.81 1872.37,4494.11C1872.68,4493.52 1872.86,4492.9 1872.86,4492.27L1872.86,4483.61L1865.65,4483.61ZM1878.45,4508.61C1875.03,4508.61 1872.86,4505.81 1872.86,4502.61C1872.86,4499.4 1875.03,4496.61 1878.45,4496.61C1882.06,4496.61 1883.68,4499.4 1883.68,4502.61C1883.68,4505.81 1882.06,4508.61 1878.45,4508.61Z" style="fill:rgb(35,41,50);fill-rule:nonzero;"/>
            </g>
            <g transform="matrix(7.04027,0,0,17.8266,-12372.2,-69441.1)">
                <path d="M1900.92,4495.73C1900.78,4496.02 1900.56,4496.4 1900.15,4496.31C1899.48,4496.19 1899.75,4495.44 1900.11,4494.77C1900.47,4494.11 1900.74,4493.36 1900.74,4492.61L1900.74,4491.61L1893.53,4491.61L1893.53,4513.61L1900.74,4513.61L1900.74,4505.06C1900.74,4499.48 1902.86,4497.27 1909.39,4497.69L1909.39,4491.27C1903.67,4491.27 1902.32,4492.81 1900.92,4495.73Z" style="fill:rgb(35,41,50);fill-rule:nonzero;"/>
            </g>
            <g transform="matrix(7.04027,0,0,17.8266,-12372.2,-69441.1)">
                <path d="M1910.08,4507.73C1910.08,4511.4 1913.55,4514.27 1918.38,4514.27C1922.34,4514.27 1925,4512.31 1926.49,4509.61C1926.67,4509.31 1926.85,4508.81 1927.43,4509.06C1927.93,4509.27 1927.53,4509.94 1927.16,4510.65C1926.85,4511.23 1926.67,4511.81 1926.67,4512.48L1926.67,4513.61L1933.88,4513.61L1933.88,4501.44C1933.88,4492.61 1928.43,4490.94 1922.79,4490.94C1917.48,4490.94 1911.62,4493.06 1910.81,4498.94L1917.92,4498.94C1918.29,4497.27 1919.37,4495.94 1922.61,4495.94C1925.9,4495.94 1926.62,4497.52 1926.67,4498.77C1926.71,4500.65 1923.69,4500.4 1919.46,4500.65C1914.32,4500.94 1910.08,4502.77 1910.08,4507.73ZM1926.67,4502.94C1926.62,4507.48 1923.29,4509.27 1921.12,4509.61C1919.19,4509.9 1917.29,4509.11 1917.29,4507.27C1917.29,4505.4 1918.78,4504.69 1920.45,4504.52C1923.83,4504.15 1925.5,4504.06 1926.67,4502.94Z" style="fill:rgb(35,41,50);fill-rule:nonzero;"/>
            </g>
            <g transform="matrix(7.04027,0,0,17.8266,-12372.2,-69441.1)">
                <path d="M1952.86,4490.94C1948.76,4490.94 1946.1,4493.9 1944.97,4496.11C1944.79,4496.44 1944.56,4496.94 1944.02,4496.73C1943.44,4496.52 1943.89,4495.69 1944.25,4495.02C1944.61,4494.36 1944.83,4493.65 1944.83,4492.65L1944.83,4491.61L1937.62,4491.61L1937.62,4513.61L1944.83,4513.61L1944.83,4505.15C1944.83,4500.06 1947.49,4496.61 1950.42,4496.61C1952.99,4496.61 1954.21,4497.98 1954.21,4502.94L1954.21,4513.61L1961.42,4513.61L1961.42,4500.27C1961.42,4494.02 1957.99,4490.94 1952.86,4490.94Z" style="fill:rgb(35,41,50);fill-rule:nonzero;"/>
            </g>
            <g transform="matrix(7.04027,0,0,17.8266,-12372.2,-69441.1)">
                <path d="M1981.69,4492.27C1981.69,4492.9 1981.88,4493.52 1982.19,4494.11C1982.55,4494.81 1983.14,4495.56 1982.55,4495.81C1982.01,4496.06 1981.69,4495.48 1981.51,4495.19C1979.98,4492.69 1977.64,4490.94 1974.03,4490.94C1967.5,4490.94 1963.67,4496.11 1963.67,4502.61C1963.67,4509.11 1967.5,4514.27 1974.03,4514.27C1977.59,4514.27 1980.07,4512.65 1981.51,4509.98C1981.65,4509.73 1981.88,4509.27 1982.33,4509.4C1983,4509.61 1982.6,4510.31 1982.24,4511.02C1981.92,4511.65 1981.69,4512.19 1981.69,4512.81L1981.69,4513.61L1988.9,4513.61L1988.9,4483.61L1981.69,4483.61L1981.69,4492.27ZM1976.11,4508.61C1972.5,4508.61 1970.88,4505.81 1970.88,4502.61C1970.88,4499.4 1972.5,4496.61 1976.11,4496.61C1979.53,4496.61 1981.69,4499.4 1981.69,4502.61C1981.69,4505.81 1979.53,4508.61 1976.11,4508.61Z" style="fill:rgb(35,41,50);fill-rule:nonzero;"/>
            </g>
        </g>
    </g>
</svg>
