<svg width="855" height="87" viewBox="0 0 855 87" fill="none" xmlns="http://www.w3.org/2000/svg">
<path d="M834.421 86.1246C845.352 86.1246 854.214 77.309 854.214 66.4331C854.214 55.5573 845.352 46.7417 834.421 46.7417C823.489 46.7417 814.629 55.5573 814.629 66.4331C814.629 77.309 823.489 86.1246 834.421 86.1246Z" fill="#E9E14E"/>
<path d="M60.7201 34.2649H22.3818V0H0V86.2006H22.3818V51.9H60.7201V86.2006H83.0653V0H60.7201V34.2649Z" fill="white"/>
<path d="M186.559 86.2006L152.48 0H122.662L88.584 86.2006H112.013L118.655 67.5596H156.451L163.13 86.2006H186.559ZM133.817 25.3214C135.045 22.1607 135.297 18.7126 135.442 14.9413C135.442 13.6842 135.947 12.7147 137.571 12.7147C139.159 12.7147 139.81 13.6842 139.81 14.9413C139.954 18.7126 140.098 22.1607 141.29 25.3214L150.459 50.9298H124.648L133.817 25.3214Z" fill="white"/>
<path d="M213.411 0H191.047V86.1999H213.411V0Z" fill="white"/>
<path d="M222.191 17.6351H251.468V86.2006H273.85V17.6351H303.127V0H222.191V17.6351Z" fill="white"/>
<path d="M334.27 0H311.906V86.1999H334.27V0Z" fill="white"/>
<path d="M410.904 38.5384C418.232 35.6292 423.936 30.3495 423.936 22.8788C423.936 7.47044 411.445 0 390.94 0H347.26V86.2006H398.63C417.799 86.2006 428.196 75.6409 428.196 61.4537C428.196 53.0133 423.142 45.5423 411.301 43.2076C410.218 43.0999 409.171 42.4893 409.171 40.873C409.171 39.7955 409.424 39.185 410.904 38.5384ZM389.605 17.1321C397.727 17.1321 401.59 19.5747 401.59 24.9623C401.59 30.2421 397.186 33.7977 389.064 33.7977H369.642V17.1321H389.605ZM369.642 69.0321V50.4275H391.446C400.507 50.4275 405.85 54.0905 405.85 59.7294C405.85 65.7276 401.048 69.0321 391.987 69.0321H369.642Z" fill="white"/>
<path d="M460.48 86.2006V56.7845H472.212C486.436 56.7845 490.19 59.9811 492.176 69.1759L495.894 86.2006H521.2L513.222 63.178C511.742 59.0117 508.673 53.4803 495.497 52.2591C494.161 52.1514 493.114 51.6487 493.114 50.0683C493.114 48.488 494.306 47.9846 495.353 47.8769C509.215 46.1528 516.94 35.6295 516.94 26.4347C516.94 11.2419 506.832 0 480.443 0H438.135V86.2006H460.48ZM460.48 17.6351H479.252C489.504 17.6351 494.558 21.1552 494.558 28.8774C494.558 35.7375 487.663 40.1547 477.916 40.1547H460.48V17.6351Z" fill="white"/>
<path d="M619.438 86.2006L585.359 0H555.541L521.463 86.2006H544.892L551.534 67.5596H589.33L596.009 86.2006H619.438ZM566.696 25.3214C567.923 22.1607 568.176 18.7126 568.321 14.9413C568.321 13.6842 568.826 12.7147 570.451 12.7147C572.039 12.7147 572.689 13.6842 572.689 14.9413C572.833 18.7126 572.977 22.1607 574.168 25.3214L583.338 50.9298H557.527L566.696 25.3214Z" fill="white"/>
<path d="M646.285 86.2006V30.3498C646.285 26.9377 644.805 23.741 643.217 20.688C642.278 18.8562 642.025 17.2401 644.155 16.881C645.094 16.7732 645.888 17.6351 646.285 18.3534L677.187 86.2006H711.265V0H688.883V55.8151C688.883 59.2631 690.363 62.4232 691.951 65.4761C692.89 67.3438 693.143 69.0325 691.013 69.2839C690.074 69.4276 689.28 68.565 688.883 67.8107L658.018 0H623.939V86.2006H646.285Z" fill="white"/>
<path d="M724.271 0V86.2006H762.501C794.558 86.2006 809.467 65.8717 809.467 43.1003C809.467 20.329 795.388 0 762.501 0H724.271ZM746.653 68.5656V17.6351H762.898C779.143 17.6351 787.121 30.0984 787.121 43.1003C787.121 56.0663 779.143 68.5656 762.898 68.5656H746.653Z" fill="white"/>
</svg>
