<?xml version="1.0" encoding="UTF-8" standalone="no"?>
<!DOCTYPE svg PUBLIC "-//W3C//DTD SVG 1.1//EN" "http://www.w3.org/Graphics/SVG/1.1/DTD/svg11.dtd">
<svg width="100%" height="100%" viewBox="0 0 1292 290" version="1.1" xmlns="http://www.w3.org/2000/svg" xmlns:xlink="http://www.w3.org/1999/xlink" xml:space="preserve" xmlns:serif="http://www.serif.com/" style="fill-rule:evenodd;clip-rule:evenodd;stroke-linejoin:round;stroke-miterlimit:2;">
    <g transform="matrix(1,0,0,1,-19534,-20578)">
        <g id="Artboard33" transform="matrix(0.834196,0,0,0.523543,19461.8,15089.7)">
            <rect x="86.644" y="10483.1" width="1547.9" height="553.12" style="fill:none;"/>
            <g transform="matrix(6.27857,0,0,15.5734,-2321.58,-575613)">
                <g>
                    <g transform="matrix(1.0015,0,0,0.643346,-1382.33,34751.8)">
                        <path d="M1785.51,4490.94C1781.4,4490.94 1778.75,4493.9 1777.62,4496.11C1777.44,4496.44 1777.21,4496.94 1776.67,4496.73C1776.09,4496.52 1776.54,4495.69 1776.9,4495.02C1777.26,4494.36 1777.48,4493.65 1777.48,4492.65L1777.48,4483.61L1770.27,4483.61L1770.27,4513.61L1777.48,4513.61L1777.48,4505.15C1777.48,4500.06 1780.14,4496.61 1783.07,4496.61C1785.64,4496.61 1786.86,4497.98 1786.86,4502.94L1786.86,4513.61L1794.07,4513.61L1794.07,4500.27C1794.07,4494.02 1790.64,4490.94 1785.51,4490.94Z" style="fill:rgb(35,41,50);fill-rule:nonzero;"/>
                        <path d="M1796.32,4507.73C1796.32,4511.4 1799.79,4514.27 1804.61,4514.27C1808.58,4514.27 1811.23,4512.31 1812.72,4509.61C1812.9,4509.31 1813.08,4508.81 1813.67,4509.06C1814.16,4509.27 1813.76,4509.94 1813.4,4510.65C1813.08,4511.23 1812.9,4511.81 1812.9,4512.48L1812.9,4513.61L1820.11,4513.61L1820.11,4501.44C1820.11,4492.61 1814.66,4490.94 1809.03,4490.94C1803.71,4490.94 1797.85,4493.06 1797.04,4498.94L1804.16,4498.94C1804.52,4497.27 1805.6,4495.94 1808.85,4495.94C1812.14,4495.94 1812.86,4497.52 1812.9,4498.77C1812.95,4500.65 1809.93,4500.4 1805.69,4500.65C1800.55,4500.94 1796.32,4502.77 1796.32,4507.73ZM1812.9,4502.94C1812.86,4507.48 1809.52,4509.27 1807.36,4509.61C1805.42,4509.9 1803.53,4509.11 1803.53,4507.27C1803.53,4505.4 1805.02,4504.69 1806.68,4504.52C1810.06,4504.15 1811.73,4504.06 1812.9,4502.94Z" style="fill:rgb(35,41,50);fill-rule:nonzero;"/>
                        <path d="M1824.19,4488.94L1831.4,4488.94L1831.4,4483.61L1824.19,4483.61L1824.19,4488.94ZM1824.19,4491.61L1824.19,4513.61L1831.4,4513.61L1831.4,4491.61L1824.19,4491.61Z" style="fill:rgb(35,41,50);fill-rule:nonzero;"/>
                        <path d="M1851.01,4491.61L1844.52,4491.61L1844.52,4485.61L1837.31,4485.61L1837.31,4491.61L1832.98,4491.61L1832.98,4496.94L1837.31,4496.94L1837.31,4506.86C1837.31,4512.15 1839.56,4513.61 1844.34,4513.61L1851.01,4513.61L1851.01,4508.27L1846.68,4508.27C1844.61,4508.27 1844.52,4508.19 1844.52,4506.11L1844.52,4496.94L1851.01,4496.94L1851.01,4491.61Z" style="fill:rgb(35,41,50);fill-rule:nonzero;"/>
                        <path d="M1854.37,4488.94L1861.58,4488.94L1861.58,4483.61L1854.37,4483.61L1854.37,4488.94ZM1854.37,4491.61L1854.37,4513.61L1861.58,4513.61L1861.58,4491.61L1854.37,4491.61Z" style="fill:rgb(35,41,50);fill-rule:nonzero;"/>
                        <path d="M1865.65,4483.61L1865.65,4513.61L1872.86,4513.61L1872.86,4512.81C1872.86,4512.19 1872.68,4511.61 1872.32,4511.02C1871.96,4510.31 1871.56,4509.61 1872.23,4509.4C1872.68,4509.27 1872.91,4509.73 1873.04,4509.98C1874.53,4512.61 1876.97,4514.27 1880.53,4514.27C1887.06,4514.27 1890.89,4509.11 1890.89,4502.61C1890.89,4496.11 1887.06,4490.94 1880.53,4490.94C1876.92,4490.94 1874.53,4492.65 1873.04,4495.19C1872.86,4495.48 1872.55,4496.06 1872.01,4495.81C1871.42,4495.56 1872.01,4494.81 1872.37,4494.11C1872.68,4493.52 1872.86,4492.9 1872.86,4492.27L1872.86,4483.61L1865.65,4483.61ZM1878.45,4508.61C1875.03,4508.61 1872.86,4505.81 1872.86,4502.61C1872.86,4499.4 1875.03,4496.61 1878.45,4496.61C1882.06,4496.61 1883.68,4499.4 1883.68,4502.61C1883.68,4505.81 1882.06,4508.61 1878.45,4508.61Z" style="fill:rgb(35,41,50);fill-rule:nonzero;"/>
                        <path d="M1900.92,4495.73C1900.78,4496.02 1900.56,4496.4 1900.15,4496.31C1899.48,4496.19 1899.75,4495.44 1900.11,4494.77C1900.47,4494.11 1900.74,4493.36 1900.74,4492.61L1900.74,4491.61L1893.53,4491.61L1893.53,4513.61L1900.74,4513.61L1900.74,4505.06C1900.74,4499.48 1902.86,4497.27 1909.39,4497.69L1909.39,4491.27C1903.67,4491.27 1902.32,4492.81 1900.92,4495.73Z" style="fill:rgb(35,41,50);fill-rule:nonzero;"/>
                        <path d="M1910.08,4507.73C1910.08,4511.4 1913.55,4514.27 1918.38,4514.27C1922.34,4514.27 1925,4512.31 1926.49,4509.61C1926.67,4509.31 1926.85,4508.81 1927.43,4509.06C1927.93,4509.27 1927.53,4509.94 1927.16,4510.65C1926.85,4511.23 1926.67,4511.81 1926.67,4512.48L1926.67,4513.61L1933.88,4513.61L1933.88,4501.44C1933.88,4492.61 1928.43,4490.94 1922.79,4490.94C1917.48,4490.94 1911.62,4493.06 1910.81,4498.94L1917.92,4498.94C1918.29,4497.27 1919.37,4495.94 1922.61,4495.94C1925.9,4495.94 1926.62,4497.52 1926.67,4498.77C1926.71,4500.65 1923.69,4500.4 1919.46,4500.65C1914.32,4500.94 1910.08,4502.77 1910.08,4507.73ZM1926.67,4502.94C1926.62,4507.48 1923.29,4509.27 1921.12,4509.61C1919.19,4509.9 1917.29,4509.11 1917.29,4507.27C1917.29,4505.4 1918.78,4504.69 1920.45,4504.52C1923.83,4504.15 1925.5,4504.06 1926.67,4502.94Z" style="fill:rgb(35,41,50);fill-rule:nonzero;"/>
                        <path d="M1952.86,4490.94C1948.76,4490.94 1946.1,4493.9 1944.97,4496.11C1944.79,4496.44 1944.56,4496.94 1944.02,4496.73C1943.44,4496.52 1943.89,4495.69 1944.25,4495.02C1944.61,4494.36 1944.83,4493.65 1944.83,4492.65L1944.83,4491.61L1937.62,4491.61L1937.62,4513.61L1944.83,4513.61L1944.83,4505.15C1944.83,4500.06 1947.49,4496.61 1950.42,4496.61C1952.99,4496.61 1954.21,4497.98 1954.21,4502.94L1954.21,4513.61L1961.42,4513.61L1961.42,4500.27C1961.42,4494.02 1957.99,4490.94 1952.86,4490.94Z" style="fill:rgb(35,41,50);fill-rule:nonzero;"/>
                        <path d="M1981.69,4492.27C1981.69,4492.9 1981.88,4493.52 1982.19,4494.11C1982.55,4494.81 1983.14,4495.56 1982.55,4495.81C1982.01,4496.06 1981.69,4495.48 1981.51,4495.19C1979.98,4492.69 1977.64,4490.94 1974.03,4490.94C1967.5,4490.94 1963.67,4496.11 1963.67,4502.61C1963.67,4509.11 1967.5,4514.27 1974.03,4514.27C1977.59,4514.27 1980.07,4512.65 1981.51,4509.98C1981.65,4509.73 1981.88,4509.27 1982.33,4509.4C1983,4509.61 1982.6,4510.31 1982.24,4511.02C1981.92,4511.65 1981.69,4512.19 1981.69,4512.81L1981.69,4513.61L1988.9,4513.61L1988.9,4483.61L1981.69,4483.61L1981.69,4492.27ZM1976.11,4508.61C1972.5,4508.61 1970.88,4505.81 1970.88,4502.61C1970.88,4499.4 1972.5,4496.61 1976.11,4496.61C1979.53,4496.61 1981.69,4499.4 1981.69,4502.61C1981.69,4505.81 1979.53,4508.61 1976.11,4508.61Z" style="fill:rgb(35,41,50);fill-rule:nonzero;"/>
                    </g>
                    <g transform="matrix(0.292076,0,0,0.187624,-6861.06,27471)">
                        <circle cx="25612.6" cy="54262" r="21.884" style="fill:rgb(0,200,84);"/>
                    </g>
                    <g transform="matrix(0.0957686,0,0,0.0615201,-1914.95,35539.9)">
                        <path d="M24130.4,34456.8C24148.9,34456.8 24162.5,34460.3 24171.2,34467.4C24179.9,34474.5 24184.3,34483.9 24184.3,34495.7C24184.3,34503.3 24181.3,34510.1 24175.2,34516.1C24169.2,34522.1 24161,34525.9 24150.5,34527.5C24149,34527.7 24148.3,34528.5 24148.3,34529.8C24148.3,34531.4 24149,34532.2 24150.5,34532.2C24156.5,34532.4 24161.3,34533.5 24164.9,34535.4C24168.5,34537.3 24171.1,34539.4 24172.8,34541.7C24174.4,34544.1 24175.9,34547.1 24177.2,34550.6L24190.6,34584.7L24159.5,34584.7L24152,34558.7C24150.6,34553.5 24149,34549.5 24147.1,34546.7C24145.3,34544 24142.4,34541.8 24138.6,34540.4C24134.7,34538.9 24129.2,34538.2 24122.1,34538.2L24100.9,34538.2L24100.9,34584.7L24074.2,34584.7L24074.2,34456.8L24130.4,34456.8ZM24127.9,34517.5C24136.1,34517.5 24143.1,34515.7 24148.9,34512C24154.7,34508.4 24157.5,34503.8 24157.5,34498.2C24157.5,34491.9 24155.4,34487 24151.2,34483.5C24146.9,34480 24141,34478.2 24133.4,34478.2L24100.9,34478.2L24100.9,34517.5L24127.9,34517.5Z" style="fill:rgb(0,200,84);fill-rule:nonzero;"/>
                        <path d="M24298.2,34535.5C24298.2,34537.4 24298,34539.8 24297.6,34542.6L24222.1,34542.6C24223,34549.8 24225.9,34555.5 24230.8,34559.7C24235.6,34563.8 24242,34565.8 24249.9,34565.8C24260.5,34565.8 24267.5,34561 24270.9,34551.3L24296.5,34551.3C24294.1,34561.8 24289,34570.3 24281.2,34576.7C24273.4,34583 24262.9,34586.2 24249.7,34586.2C24238.8,34586.2 24229.4,34584.1 24221.5,34579.8C24213.7,34575.6 24207.7,34569.7 24203.6,34562.3C24199.6,34554.8 24197.5,34546.3 24197.5,34536.7C24197.5,34526.8 24199.6,34518.1 24203.8,34510.7C24208,34503.2 24214,34497.5 24221.8,34493.4C24229.6,34489.3 24238.8,34487.3 24249.3,34487.3C24257.8,34487.3 24265.7,34489 24273.2,34492.3C24280.6,34495.6 24286.6,34500.9 24291.2,34508.1C24295.9,34515.3 24298.2,34524.4 24298.2,34535.5ZM24273.1,34526.6C24272.5,34520.5 24270.3,34515.6 24266.4,34511.8C24262.4,34508.1 24257,34506.2 24250,34506.2C24235.1,34506.2 24226.1,34513 24223.1,34526.6L24273.1,34526.6Z" style="fill:rgb(0,200,84);fill-rule:nonzero;"/>
                        <path d="M24332.9,34552.4C24333,34556.7 24334.8,34560.4 24338.3,34563.5C24341.8,34566.5 24347.6,34568 24355.9,34568C24363.5,34568 24369,34567 24372.3,34564.9C24375.6,34562.9 24377.3,34560.1 24377.3,34556.6C24377.3,34554.3 24376.2,34552.5 24374.1,34551.3C24371.9,34550.1 24368.9,34549.1 24365.1,34548.5C24361.3,34547.8 24355.4,34547.1 24347.2,34546.2C24333.1,34544.6 24323.5,34541.1 24318.6,34535.6C24313.7,34530.1 24311.2,34523.7 24311.2,34516.6C24311.2,34511.2 24313,34506.4 24316.4,34501.9C24319.8,34497.5 24324.8,34494 24331.5,34491.3C24338.2,34488.6 24346.2,34487.3 24355.7,34487.3C24368.9,34487.3 24379.4,34490.2 24387,34495.9C24394.6,34501.7 24398.7,34509.1 24399.3,34518.2L24374.6,34518.2C24374.2,34514.6 24372.5,34511.5 24369.6,34509.1C24366.6,34506.7 24361.8,34505.5 24355.1,34505.5C24342.6,34505.5 24336.4,34508.8 24336.4,34515.3C24336.4,34517.1 24336.9,34518.6 24337.9,34519.8C24338.9,34521.1 24341,34522.1 24344.3,34523.1C24347.6,34524.1 24352.4,34524.9 24358.8,34525.5C24372.6,34526.8 24383.3,34529.8 24391,34534.3C24398.7,34538.8 24402.5,34545.7 24402.5,34554.7C24402.5,34564.8 24398.4,34572.6 24390.2,34578C24382,34583.5 24370.3,34586.2 24355.1,34586.2C24340.4,34586.2 24329,34583.2 24321,34577.2C24312.9,34571.2 24308.6,34562.9 24308.1,34552.4L24332.9,34552.4Z" style="fill:rgb(0,200,84);fill-rule:nonzero;"/>
                        <path d="M24513,34535.5C24513,34537.4 24512.8,34539.8 24512.5,34542.6L24436.9,34542.6C24437.9,34549.8 24440.7,34555.5 24445.6,34559.7C24450.4,34563.8 24456.8,34565.8 24464.7,34565.8C24475.3,34565.8 24482.3,34561 24485.7,34551.3L24511.3,34551.3C24508.9,34561.8 24503.8,34570.3 24496,34576.7C24488.2,34583 24477.7,34586.2 24464.5,34586.2C24453.6,34586.2 24444.2,34584.1 24436.4,34579.8C24428.5,34575.6 24422.5,34569.7 24418.5,34562.3C24414.4,34554.8 24412.4,34546.3 24412.4,34536.7C24412.4,34526.8 24414.5,34518.1 24418.7,34510.7C24422.9,34503.2 24428.8,34497.5 24436.6,34493.4C24444.4,34489.3 24453.6,34487.3 24464.1,34487.3C24472.6,34487.3 24480.6,34489 24488,34492.3C24495.4,34495.6 24501.4,34500.9 24506.1,34508.1C24510.7,34515.3 24513,34524.4 24513,34535.5ZM24487.9,34526.6C24487.4,34520.5 24485.1,34515.6 24481.2,34511.8C24477.3,34508.1 24471.8,34506.2 24464.9,34506.2C24449.9,34506.2 24440.9,34513 24437.9,34526.6L24487.9,34526.6Z" style="fill:rgb(0,200,84);fill-rule:nonzero;"/>
                        <path d="M24522.9,34558.4C24522.9,34548.4 24526.4,34541.1 24533.2,34536.3C24540.1,34531.5 24549.3,34528.8 24560.7,34528.2L24570.7,34527.8C24579.6,34527.6 24586,34527.1 24589.8,34526.2C24593.6,34525.4 24595.4,34523.3 24595.3,34520C24595.2,34515.9 24593.6,34512.6 24590.8,34510C24587.9,34507.5 24582.4,34506.2 24574.4,34506.2C24566.3,34506.2 24560.5,34507.5 24557.1,34510.1C24553.7,34512.7 24551.6,34516.3 24550.8,34520.8L24526.1,34520.8C24527.8,34509.4 24533.2,34500.9 24542.4,34495.5C24551.6,34490 24562.5,34487.3 24575.2,34487.3C24589.1,34487.3 24600.1,34490.5 24608.3,34496.8C24616.4,34503.1 24620.5,34514.7 24620.5,34531.7L24620.5,34584.7L24595.3,34584.7L24595.3,34578C24595.3,34574.4 24596.3,34570.9 24598.2,34567.5C24598.8,34566.3 24599,34565.4 24599,34564.7C24599,34564 24598.7,34563.5 24598,34563.3L24597.2,34563.1C24596.5,34563.1 24595.9,34563.4 24595.5,34564.1C24595.1,34564.8 24594.9,34565.2 24594.9,34565.3C24588.7,34579.2 24576.8,34586.2 24559.1,34586.2C24552.7,34586.2 24546.7,34585 24541.1,34582.6C24535.5,34580.1 24531.1,34576.8 24527.8,34572.6C24524.6,34568.3 24522.9,34563.6 24522.9,34558.4ZM24595.3,34535.3C24592.7,34538 24589.2,34539.8 24585,34540.8C24580.7,34541.9 24574,34542.8 24565,34543.7C24559.4,34544.3 24555.1,34545.6 24552.3,34547.7C24549.5,34549.9 24548.1,34553 24548.1,34557.1C24548.1,34560.6 24549.6,34563.5 24552.5,34565.7C24555.5,34567.8 24559.3,34568.9 24564,34568.9C24565.7,34568.9 24567,34568.9 24568,34568.7C24575.7,34567.8 24582.1,34564.7 24587.3,34559.5C24592.5,34554.3 24595.2,34546.2 24595.3,34535.3Z" style="fill:rgb(0,200,84);fill-rule:nonzero;"/>
                        <path d="M24663.4,34509.3C24663.9,34509.3 24664.4,34509.1 24664.8,34508.7C24665.2,34508.2 24665.4,34507.8 24665.6,34507.5C24667.9,34502.5 24670.4,34498.6 24672.8,34495.8C24675.3,34493.1 24678.9,34490.9 24683.7,34489.5C24688.4,34488 24694.8,34487.3 24702.9,34487.3L24702.9,34510.9C24701.4,34510.8 24699.2,34510.8 24696.4,34510.8C24684.8,34510.8 24676.6,34513.3 24672.1,34518.3C24667.5,34523.3 24665.2,34531.6 24665.2,34543.1L24665.2,34584.7L24640,34584.7L24640,34488.8L24665.2,34488.8L24665.2,34494C24665.2,34497.8 24664.2,34501.5 24662.2,34505.1C24661.7,34506.1 24661.4,34506.9 24661.4,34507.5C24661.4,34508.4 24662,34509.1 24663.2,34509.3L24663.4,34509.3Z" style="fill:rgb(0,200,84);fill-rule:nonzero;"/>
                        <path d="M24707,34536.7C24707,34527.3 24709.1,34518.8 24713.4,34511.3C24717.6,34503.8 24723.8,34497.9 24731.8,34493.7C24739.8,34489.4 24749,34487.3 24759.5,34487.3C24768.8,34487.3 24777,34489.1 24784.1,34492.6C24791.2,34496.1 24796.7,34500.7 24800.7,34506.5C24804.7,34512.2 24807,34518.4 24807.7,34525.1L24782.9,34525.1C24782.1,34520.3 24779.7,34516.3 24775.6,34513.1C24771.6,34510 24766.2,34508.4 24759.5,34508.4C24751,34508.4 24744.3,34511 24739.4,34516.2C24734.6,34521.4 24732.2,34528.3 24732.2,34536.7C24732.2,34545.2 24734.6,34552.1 24739.4,34557.3C24744.3,34562.5 24751,34565.1 24759.5,34565.1C24766.2,34565.1 24771.6,34563.5 24775.6,34560.4C24779.7,34557.2 24782.1,34553.2 24782.9,34548.4L24807.7,34548.4C24807,34555.1 24804.7,34561.3 24800.7,34567C24796.7,34572.8 24791.2,34577.4 24784.2,34580.9C24777.2,34584.4 24768.9,34586.2 24759.5,34586.2C24749.1,34586.2 24740,34584.1 24732.1,34579.8C24724.1,34575.6 24718,34569.7 24713.6,34562.2C24709.2,34554.7 24707,34546.2 24707,34536.7Z" style="fill:rgb(0,200,84);fill-rule:nonzero;"/>
                        <path d="M24881.1,34487.3C24892.6,34487.3 24901.7,34490.8 24908.4,34497.7C24915.1,34504.6 24918.5,34514.7 24918.5,34528L24918.5,34584.7L24893.3,34584.7L24893.3,34536C24893.3,34525.6 24891.8,34518.4 24888.8,34514.4C24885.8,34510.4 24880.8,34508.4 24874,34508.4C24869.2,34508.4 24864.6,34510 24860.4,34513.1C24856.1,34516.3 24852.7,34520.7 24850,34526.4C24847.4,34532.1 24846.1,34538.5 24846.1,34545.7L24846.1,34584.7L24820.9,34584.7L24820.9,34453.9L24846.1,34453.9L24846.1,34494.8C24846.1,34497.5 24845.8,34499.9 24845.3,34501.8C24844.8,34503.8 24844,34505.8 24842.9,34507.8C24842.3,34509.3 24842,34510.3 24842,34510.8C24842,34511.8 24842.5,34512.4 24843.5,34512.6L24844.1,34512.6C24845,34512.6 24845.8,34511.8 24846.5,34510.4C24849.4,34504.4 24853.8,34499.1 24859.9,34494.4C24865.9,34489.7 24873,34487.3 24881.1,34487.3Z" style="fill:rgb(0,200,84);fill-rule:nonzero;"/>
                    </g>
                </g>
            </g>
        </g>
    </g>
</svg>
