<?xml version="1.0" encoding="UTF-8" standalone="no"?>
<!DOCTYPE svg PUBLIC "-//W3C//DTD SVG 1.1//EN" "http://www.w3.org/Graphics/SVG/1.1/DTD/svg11.dtd">
<svg width="100%" height="100%" viewBox="0 0 1358 338" version="1.1" xmlns="http://www.w3.org/2000/svg" xmlns:xlink="http://www.w3.org/1999/xlink" xml:space="preserve" xmlns:serif="http://www.serif.com/" style="fill-rule:evenodd;clip-rule:evenodd;stroke-linejoin:round;stroke-miterlimit:2;">
    <g transform="matrix(1,0,0,1,-19534,-20164)">
        <g id="Artboard33" transform="matrix(0.877078,0,0,0.610165,19458.1,13768)">
            <rect x="86.644" y="10483.1" width="1547.9" height="553.12" style="fill:none;"/>
            <g transform="matrix(1,0,0,1,-18.2978,7.60398)">
                <g transform="matrix(5.98055,0,0,8.5967,-10411.6,-28017.4)">
                    <path d="M1785.51,4490.94C1781.4,4490.94 1778.75,4493.9 1777.62,4496.11C1777.44,4496.44 1777.21,4496.94 1776.67,4496.73C1776.09,4496.52 1776.54,4495.69 1776.9,4495.02C1777.26,4494.36 1777.48,4493.65 1777.48,4492.65L1777.48,4483.61L1770.27,4483.61L1770.27,4513.61L1777.48,4513.61L1777.48,4505.15C1777.48,4500.06 1780.14,4496.61 1783.07,4496.61C1785.64,4496.61 1786.86,4497.98 1786.86,4502.94L1786.86,4513.61L1794.07,4513.61L1794.07,4500.27C1794.07,4494.02 1790.64,4490.94 1785.51,4490.94Z" style="fill:rgb(35,41,50);fill-rule:nonzero;"/>
                    <path d="M1796.32,4507.73C1796.32,4511.4 1799.79,4514.27 1804.61,4514.27C1808.58,4514.27 1811.23,4512.31 1812.72,4509.61C1812.9,4509.31 1813.08,4508.81 1813.67,4509.06C1814.16,4509.27 1813.76,4509.94 1813.4,4510.65C1813.08,4511.23 1812.9,4511.81 1812.9,4512.48L1812.9,4513.61L1820.11,4513.61L1820.11,4501.44C1820.11,4492.61 1814.66,4490.94 1809.03,4490.94C1803.71,4490.94 1797.85,4493.06 1797.04,4498.94L1804.16,4498.94C1804.52,4497.27 1805.6,4495.94 1808.85,4495.94C1812.14,4495.94 1812.86,4497.52 1812.9,4498.77C1812.95,4500.65 1809.93,4500.4 1805.69,4500.65C1800.55,4500.94 1796.32,4502.77 1796.32,4507.73ZM1812.9,4502.94C1812.86,4507.48 1809.52,4509.27 1807.36,4509.61C1805.42,4509.9 1803.53,4509.11 1803.53,4507.27C1803.53,4505.4 1805.02,4504.69 1806.68,4504.52C1810.06,4504.15 1811.73,4504.06 1812.9,4502.94Z" style="fill:rgb(35,41,50);fill-rule:nonzero;"/>
                    <path d="M1824.19,4488.94L1831.4,4488.94L1831.4,4483.61L1824.19,4483.61L1824.19,4488.94ZM1824.19,4491.61L1824.19,4513.61L1831.4,4513.61L1831.4,4491.61L1824.19,4491.61Z" style="fill:rgb(35,41,50);fill-rule:nonzero;"/>
                    <path d="M1851.01,4491.61L1844.52,4491.61L1844.52,4485.61L1837.31,4485.61L1837.31,4491.61L1832.98,4491.61L1832.98,4496.94L1837.31,4496.94L1837.31,4506.86C1837.31,4512.15 1839.56,4513.61 1844.34,4513.61L1851.01,4513.61L1851.01,4508.27L1846.68,4508.27C1844.61,4508.27 1844.52,4508.19 1844.52,4506.11L1844.52,4496.94L1851.01,4496.94L1851.01,4491.61Z" style="fill:rgb(35,41,50);fill-rule:nonzero;"/>
                    <path d="M1854.37,4488.94L1861.58,4488.94L1861.58,4483.61L1854.37,4483.61L1854.37,4488.94ZM1854.37,4491.61L1854.37,4513.61L1861.58,4513.61L1861.58,4491.61L1854.37,4491.61Z" style="fill:rgb(35,41,50);fill-rule:nonzero;"/>
                    <path d="M1865.65,4483.61L1865.65,4513.61L1872.86,4513.61L1872.86,4512.81C1872.86,4512.19 1872.68,4511.61 1872.32,4511.02C1871.96,4510.31 1871.56,4509.61 1872.23,4509.4C1872.68,4509.27 1872.91,4509.73 1873.04,4509.98C1874.53,4512.61 1876.97,4514.27 1880.53,4514.27C1887.06,4514.27 1890.89,4509.11 1890.89,4502.61C1890.89,4496.11 1887.06,4490.94 1880.53,4490.94C1876.92,4490.94 1874.53,4492.65 1873.04,4495.19C1872.86,4495.48 1872.55,4496.06 1872.01,4495.81C1871.42,4495.56 1872.01,4494.81 1872.37,4494.11C1872.68,4493.52 1872.86,4492.9 1872.86,4492.27L1872.86,4483.61L1865.65,4483.61ZM1878.45,4508.61C1875.03,4508.61 1872.86,4505.81 1872.86,4502.61C1872.86,4499.4 1875.03,4496.61 1878.45,4496.61C1882.06,4496.61 1883.68,4499.4 1883.68,4502.61C1883.68,4505.81 1882.06,4508.61 1878.45,4508.61Z" style="fill:rgb(35,41,50);fill-rule:nonzero;"/>
                    <path d="M1900.92,4495.73C1900.78,4496.02 1900.56,4496.4 1900.15,4496.31C1899.48,4496.19 1899.75,4495.44 1900.11,4494.77C1900.47,4494.11 1900.74,4493.36 1900.74,4492.61L1900.74,4491.61L1893.53,4491.61L1893.53,4513.61L1900.74,4513.61L1900.74,4505.06C1900.74,4499.48 1902.86,4497.27 1909.39,4497.69L1909.39,4491.27C1903.67,4491.27 1902.32,4492.81 1900.92,4495.73Z" style="fill:rgb(35,41,50);fill-rule:nonzero;"/>
                    <path d="M1910.08,4507.73C1910.08,4511.4 1913.55,4514.27 1918.38,4514.27C1922.34,4514.27 1925,4512.31 1926.49,4509.61C1926.67,4509.31 1926.85,4508.81 1927.43,4509.06C1927.93,4509.27 1927.53,4509.94 1927.16,4510.65C1926.85,4511.23 1926.67,4511.81 1926.67,4512.48L1926.67,4513.61L1933.88,4513.61L1933.88,4501.44C1933.88,4492.61 1928.43,4490.94 1922.79,4490.94C1917.48,4490.94 1911.62,4493.06 1910.81,4498.94L1917.92,4498.94C1918.29,4497.27 1919.37,4495.94 1922.61,4495.94C1925.9,4495.94 1926.62,4497.52 1926.67,4498.77C1926.71,4500.65 1923.69,4500.4 1919.46,4500.65C1914.32,4500.94 1910.08,4502.77 1910.08,4507.73ZM1926.67,4502.94C1926.62,4507.48 1923.29,4509.27 1921.12,4509.61C1919.19,4509.9 1917.29,4509.11 1917.29,4507.27C1917.29,4505.4 1918.78,4504.69 1920.45,4504.52C1923.83,4504.15 1925.5,4504.06 1926.67,4502.94Z" style="fill:rgb(35,41,50);fill-rule:nonzero;"/>
                    <path d="M1952.86,4490.94C1948.76,4490.94 1946.1,4493.9 1944.97,4496.11C1944.79,4496.44 1944.56,4496.94 1944.02,4496.73C1943.44,4496.52 1943.89,4495.69 1944.25,4495.02C1944.61,4494.36 1944.83,4493.65 1944.83,4492.65L1944.83,4491.61L1937.62,4491.61L1937.62,4513.61L1944.83,4513.61L1944.83,4505.15C1944.83,4500.06 1947.49,4496.61 1950.42,4496.61C1952.99,4496.61 1954.21,4497.98 1954.21,4502.94L1954.21,4513.61L1961.42,4513.61L1961.42,4500.27C1961.42,4494.02 1957.99,4490.94 1952.86,4490.94Z" style="fill:rgb(35,41,50);fill-rule:nonzero;"/>
                    <path d="M1981.69,4492.27C1981.69,4492.9 1981.88,4493.52 1982.19,4494.11C1982.55,4494.81 1983.14,4495.56 1982.55,4495.81C1982.01,4496.06 1981.69,4495.48 1981.51,4495.19C1979.98,4492.69 1977.64,4490.94 1974.03,4490.94C1967.5,4490.94 1963.67,4496.11 1963.67,4502.61C1963.67,4509.11 1967.5,4514.27 1974.03,4514.27C1977.59,4514.27 1980.07,4512.65 1981.51,4509.98C1981.65,4509.73 1981.88,4509.27 1982.33,4509.4C1983,4509.61 1982.6,4510.31 1982.24,4511.02C1981.92,4511.65 1981.69,4512.19 1981.69,4512.81L1981.69,4513.61L1988.9,4513.61L1988.9,4483.61L1981.69,4483.61L1981.69,4492.27ZM1976.11,4508.61C1972.5,4508.61 1970.88,4505.81 1970.88,4502.61C1970.88,4499.4 1972.5,4496.61 1976.11,4496.61C1979.53,4496.61 1981.69,4499.4 1981.69,4502.61C1981.69,4505.81 1979.53,4508.61 1976.11,4508.61Z" style="fill:rgb(35,41,50);fill-rule:nonzero;"/>
                </g>
                <g transform="matrix(1.74416,0,0,2.50713,-43128.4,-125306)">
                    <circle cx="25612.6" cy="54262" r="21.884" style="fill:rgb(252,51,76);"/>
                </g>
                <g transform="matrix(0.571891,0,0,0.822061,-13592.2,-17483.4)">
                    <path d="M24125.9,34456.8C24142.4,34456.8 24155.9,34459.6 24166.5,34465.4C24177,34471.2 24184.7,34478.8 24189.6,34488.5C24194.4,34498.1 24196.9,34508.9 24196.9,34520.8C24196.9,34532.6 24194.4,34543.4 24189.4,34553C24184.4,34562.7 24176.6,34570.4 24166,34576.1C24155.4,34581.9 24142,34584.7 24125.9,34584.7L24074.2,34584.7L24074.2,34456.8L24125.9,34456.8ZM24128.8,34562.9C24137.7,34562.9 24145.3,34561 24151.5,34557C24157.8,34553.1 24162.4,34547.9 24165.5,34541.5C24168.6,34535.1 24170.1,34528.1 24170.1,34520.8C24170.1,34513.4 24168.6,34506.4 24165.5,34500C24162.4,34493.6 24157.8,34488.4 24151.5,34484.5C24145.3,34480.5 24137.7,34478.6 24128.8,34478.6L24100.9,34478.6L24100.9,34562.9L24128.8,34562.9Z" style="fill:rgb(252,51,76);fill-rule:nonzero;"/>
                    <path d="M24213,34453.9L24238.2,34453.9L24238.2,34477.1L24213,34477.1L24213,34453.9ZM24213,34488.8L24238.2,34488.8L24238.2,34584.7L24213,34584.7L24213,34488.8Z" style="fill:rgb(252,51,76);fill-rule:nonzero;"/>
                    <path d="M24252.9,34534.6C24252.9,34526 24254.8,34518.1 24258.6,34510.8C24262.4,34503.6 24267.8,34497.9 24274.7,34493.7C24281.5,34489.4 24289.4,34487.3 24298.2,34487.3C24312.3,34487.3 24323.3,34493.1 24331,34504.8C24331.9,34506.6 24333,34507.2 24334.1,34506.8C24334.8,34506.6 24335.1,34506.1 24335.1,34505.3C24335.1,34504.7 24334.7,34503.5 24333.7,34501.8C24332.3,34499.3 24331.6,34496.4 24331.6,34493.1L24331.6,34488.8L24356.8,34488.8L24356.8,34574.6C24356.8,34589.7 24352.2,34601.3 24343.2,34609.2C24334.1,34617.1 24321.5,34621.1 24305.4,34621.1C24290.1,34621.1 24278.3,34617.9 24269.9,34611.4C24261.6,34604.9 24257,34596.7 24256.1,34586.9L24280.8,34586.9C24282.3,34597.1 24290.4,34602.2 24305,34602.2C24322.7,34602.2 24331.6,34593.3 24331.6,34575.5C24331.6,34572.3 24332.3,34569.5 24333.7,34566.9C24334.7,34565.2 24335.1,34564.1 24335.1,34563.7C24335.1,34563 24334.8,34562.6 24334.1,34562.4L24333.3,34562.2C24332.6,34562.2 24332,34562.5 24331.6,34563C24331.2,34563.6 24331,34563.9 24331,34564C24323.5,34575.9 24312.6,34581.8 24298.2,34581.8C24289.4,34581.8 24281.5,34579.7 24274.7,34575.5C24267.8,34571.2 24262.4,34565.5 24258.6,34558.3C24254.8,34551.1 24252.9,34543.2 24252.9,34534.6ZM24304,34560.7C24309.4,34560.7 24314.2,34559.6 24318.4,34557.2C24322.6,34554.8 24325.8,34551.7 24328.1,34547.7C24330.4,34543.7 24331.6,34539.3 24331.6,34534.6C24331.6,34529.8 24330.4,34525.5 24328.1,34521.5C24325.8,34517.5 24322.6,34514.3 24318.4,34511.9C24314.2,34509.6 24309.4,34508.4 24304,34508.4C24295.7,34508.4 24289.2,34510.9 24284.8,34515.8C24280.3,34520.8 24278.1,34527.1 24278.1,34534.6C24278.1,34542.1 24280.3,34548.3 24284.8,34553.3C24289.2,34558.3 24295.7,34560.7 24304,34560.7Z" style="fill:rgb(252,51,76);fill-rule:nonzero;"/>
                    <path d="M24377.8,34453.9L24402.9,34453.9L24402.9,34477.1L24377.8,34477.1L24377.8,34453.9ZM24377.8,34488.8L24402.9,34488.8L24402.9,34584.7L24377.8,34584.7L24377.8,34488.8Z" style="fill:rgb(252,51,76);fill-rule:nonzero;"/>
                    <path d="M24457.1,34509.1L24457.1,34552.9C24457.1,34556.8 24457.2,34559.5 24457.6,34560.9C24457.9,34562.4 24458.8,34563.3 24460.1,34563.7C24461.5,34564.2 24464.1,34564.4 24467.9,34564.4L24485.4,34564.4L24485.4,34584.7L24462.6,34584.7C24455.4,34584.7 24449.5,34583.9 24445.1,34582.1C24440.6,34580.3 24437.3,34577.3 24435.2,34573.1C24433,34568.9 24431.9,34562.9 24431.9,34555.3L24431.9,34509.1L24413,34509.1L24413,34488.8L24431.9,34488.8L24431.9,34462.6L24457.1,34462.6L24457.1,34488.8L24485.4,34488.8L24485.4,34509.1L24457.1,34509.1Z" style="fill:rgb(252,51,76);fill-rule:nonzero;"/>
                    <path d="M24497,34558.4C24497,34548.4 24500.4,34541.1 24507.3,34536.3C24514.2,34531.5 24523.3,34528.8 24534.7,34528.2L24544.8,34527.8C24553.7,34527.6 24560,34527.1 24563.8,34526.2C24567.6,34525.4 24569.5,34523.3 24569.3,34520C24569.2,34515.9 24567.7,34512.6 24564.8,34510C24561.9,34507.5 24556.5,34506.2 24548.5,34506.2C24540.4,34506.2 24534.6,34507.5 24531.2,34510.1C24527.8,34512.7 24525.7,34516.3 24524.9,34520.8L24500.1,34520.8C24501.8,34509.4 24507.3,34500.9 24516.4,34495.5C24525.6,34490 24536.6,34487.3 24549.3,34487.3C24563.2,34487.3 24574.2,34490.5 24582.3,34496.8C24590.4,34503.1 24594.5,34514.7 24594.5,34531.7L24594.5,34584.7L24569.3,34584.7L24569.3,34578C24569.3,34574.4 24570.3,34570.9 24572.3,34567.5C24572.8,34566.3 24573.1,34565.4 24573.1,34564.7C24573.1,34564 24572.7,34563.5 24572.1,34563.3L24571.3,34563.1C24570.5,34563.1 24569.9,34563.4 24569.5,34564.1C24569.1,34564.8 24568.9,34565.2 24568.9,34565.3C24562.8,34579.2 24550.8,34586.2 24533.1,34586.2C24526.7,34586.2 24520.7,34585 24515.2,34582.6C24509.6,34580.1 24505.2,34576.8 24501.9,34572.6C24498.6,34568.3 24497,34563.6 24497,34558.4ZM24569.3,34535.3C24566.7,34538 24563.3,34539.8 24559,34540.8C24554.7,34541.9 24548.1,34542.8 24539,34543.7C24533.4,34544.3 24529.2,34545.6 24526.4,34547.7C24523.5,34549.9 24522.1,34553 24522.1,34557.1C24522.1,34560.6 24523.6,34563.5 24526.6,34565.7C24529.5,34567.8 24533.3,34568.9 24538.1,34568.9C24539.8,34568.9 24541.1,34568.9 24542,34568.7C24549.7,34567.8 24556.2,34564.7 24561.4,34559.5C24566.5,34554.3 24569.2,34546.2 24569.3,34535.3Z" style="fill:rgb(252,51,76);fill-rule:nonzero;"/>
                    <rect x="24615.5" y="34453.9" width="25.17" height="130.891" style="fill:rgb(252,51,76);fill-rule:nonzero;"/>
                </g>
            </g>
        </g>
    </g>
</svg>
