<?xml version="1.0" encoding="UTF-8" standalone="no"?>
<!DOCTYPE svg PUBLIC "-//W3C//DTD SVG 1.1//EN" "http://www.w3.org/Graphics/SVG/1.1/DTD/svg11.dtd">
<svg width="100%" height="100%" viewBox="0 0 892 892" version="1.1" xmlns="http://www.w3.org/2000/svg" xmlns:xlink="http://www.w3.org/1999/xlink" xml:space="preserve" xmlns:serif="http://www.serif.com/" style="fill-rule:evenodd;clip-rule:evenodd;stroke-linejoin:round;stroke-miterlimit:2;">
    <g transform="matrix(1,0,0,1,-33013,-29842)">
        <g id="Artboard56" transform="matrix(1,0,0,1,15134.8,7377.4)">
            <rect x="17878.8" y="22464.9" width="891.402" height="891.402" style="fill:none;"/>
            <g transform="matrix(5.4599,0,0,5.4599,-1515.13,-244198)">
                <path d="M3633.7,48843C3590.19,48843 3554.9,48878.3 3554.9,48921.8C3554.9,48965.3 3590.19,49000.6 3633.7,49000.6C3677.21,49000.6 3712.5,48965.3 3712.5,48921.8C3712.5,48878.3 3677.21,48843 3633.7,48843ZM3650.51,48965.5L3652.31,48968.1L3678.98,48968.1L3672.48,48958.7L3642.13,48914.6L3675.77,48875.5L3668.08,48875.5L3661.49,48883.1L3638.7,48909.6L3615.19,48875.5L3588.52,48875.5L3595.03,48884.9L3623.89,48926.9L3588.41,48968.1L3596.11,48968.1L3627.32,48931.8L3650.51,48965.5ZM3655.48,48962.1L3631.39,48927.1L3627.95,48922.1L3600,48881.5L3612.02,48881.5L3634.63,48914.3L3638.06,48919.3L3667.51,48962.1L3655.48,48962.1Z" style="fill:rgb(255,167,169);"/>
            </g>
        </g>
    </g>
</svg>
